<?xml version="1.0" encoding="UTF-8"?>
<svg xmlns="http://www.w3.org/2000/svg" width="128" height="128" viewBox="0 0 128 128">
  <defs>
    <linearGradient id="q1" gradientUnits="userSpaceOnUse" x1="64" y1="20" x2="108" y2="64">
      <stop offset="0" stop-color="#7a4de8"/><stop offset=".5" stop-color="#d33bc5"/><stop offset="1" stop-color="#f04a5d"/>
    </linearGradient>
    <linearGradient id="q2" gradientUnits="userSpaceOnUse" x1="108" y1="64" x2="64" y2="108">
      <stop offset="0" stop-color="#f04a5d"/><stop offset=".52" stop-color="#f18442"/><stop offset="1" stop-color="#e4cc45"/>
    </linearGradient>
    <linearGradient id="q3" gradientUnits="userSpaceOnUse" x1="64" y1="108" x2="20" y2="64">
      <stop offset="0" stop-color="#e4cc45"/><stop offset=".5" stop-color="#55bd72"/><stop offset="1" stop-color="#32c6c8"/>
    </linearGradient>
    <linearGradient id="q4" gradientUnits="userSpaceOnUse" x1="20" y1="64" x2="64" y2="20">
      <stop offset="0" stop-color="#32c6c8"/><stop offset=".52" stop-color="#3c9bea"/><stop offset="1" stop-color="#7a4de8"/>
    </linearGradient>
  </defs>
  <circle cx="64" cy="64" r="51" fill="#191b21"/>
  <g fill="none" stroke-width="10" stroke-linecap="butt">
    <path d="M64 20A44 44 0 0 1 108 64" stroke="url(#q1)"/>
    <path d="M108 64A44 44 0 0 1 64 108" stroke="url(#q2)"/>
    <path d="M64 108A44 44 0 0 1 20 64" stroke="url(#q3)"/>
    <path d="M20 64A44 44 0 0 1 64 20" stroke="url(#q4)"/>
  </g>
  <g transform="rotate(30 64 64)">
    <polygon points="64,20 28,90 100,90" fill="none" stroke="#f4f2ec" stroke-width="2" stroke-linejoin="round" opacity=".92"/>
    <circle cx="64" cy="20" r="7" fill="#7a4de8" stroke="#fff" stroke-width="2.5"/>
    <circle cx="28" cy="90" r="4.5" fill="#55bd72" stroke="#fff" stroke-width="2"/>
    <circle cx="100" cy="90" r="4.5" fill="#ef8743" stroke="#fff" stroke-width="2"/>
  </g>
</svg>
